# xmcd
#
# Track frame offsets: 
#        150
#        9842
#        30510
#        42302
#        68973
#        89899
#        105741
#        126868
#        156994
#        170352
#
# Disc length: 2555 seconds
#
# Revision: 1
# Processed by: cddbd v1.5.2PL0 Copyright (c) Steve Scherf et al.
# Submitted via: ExactAudioCopy v0.99pb5
#
DISCID=7f09f90a
DTITLE=Fabiano Do Nascimento - Tempo Dos Mestres
DYEAR=2017
DGENRE=Latin
TTITLE0=Planalto
TTITLE1=Baiao
TTITLE2=Brasileirinho
TTITLE3=Oya Nana
TTITLE4=Ja Que Tu
TTITLE5=Canto De Xango
TTITLE6=Louva-A-Deus ''Mantis''
TTITLE7=Sambando
TTITLE8=O Tempo
TTITLE9=Matrisadan
EXTD=
EXTT0=
EXTT1=
EXTT2=
EXTT3=
EXTT4=
EXTT5=
EXTT6=
EXTT7=
EXTT8=
EXTT9=
PLAYORDER=
